<svg width="71" height="72" viewBox="0 0 71 72" fill="none" xmlns="http://www.w3.org/2000/svg">
<g id="003-bullhorn">
<path id="Shape" fill-rule="evenodd" clip-rule="evenodd" d="M38.9508 62.5578H41.3115C41.9634 62.5578 42.4918 63.0863 42.4918 63.7382V66.0988C42.4918 69.3582 39.8495 72.0005 36.5902 72.0005H5.90164C2.64225 72.0005 0 69.3582 0 66.0988V63.7382C0 63.0863 0.528451 62.5578 1.18033 62.5578H3.54098V37.771C3.54098 37.1191 4.06943 36.5906 4.72131 36.5906H15.722C16.3738 36.5906 16.9023 37.1191 16.9023 37.771C16.9023 38.4228 16.3738 38.9513 15.722 38.9513H5.90164V62.5578H36.5902V50.9906C36.5902 50.3388 37.1186 49.8103 37.7705 49.8103C38.4224 49.8103 38.9508 50.3388 38.9508 50.9906V62.5578ZM36.5902 69.6398C38.5458 69.6398 40.1311 68.0545 40.1311 66.0988V64.9185H2.36066V66.0988C2.36066 68.0545 3.94601 69.6398 5.90164 69.6398H8.26229V68.4595C8.26229 67.8076 8.79075 67.2792 9.44262 67.2792C10.0945 67.2792 10.623 67.8076 10.623 68.4595V69.6398H31.8689V68.4595C31.8689 67.8076 32.3973 67.2792 33.0492 67.2792C33.7011 67.2792 34.2295 67.8076 34.2295 68.4595V69.6398H36.5902Z" fill="black"/>
<path id="Path" d="M61.377 8.26276H63.7377C64.3896 8.26276 64.918 7.7343 64.918 7.08243C64.918 6.43055 64.3896 5.9021 63.7377 5.9021H61.377C59.4214 5.9021 57.8361 7.48745 57.8361 9.44308V10.6234H56.6557C56.0039 10.6234 55.4754 11.1519 55.4754 11.8037C55.4754 12.4556 56.0039 12.9841 56.6557 12.9841H57.8361V16.5251C57.8361 17.1769 58.3645 17.7054 59.0164 17.7054C59.6683 17.7054 60.1967 17.1769 60.1967 16.5251V12.9841H61.377C62.0289 12.9841 62.5574 12.4556 62.5574 11.8037C62.5574 11.1519 62.0289 10.6234 61.377 10.6234H60.1967V9.44308C60.1967 8.79121 60.7252 8.26276 61.377 8.26276Z" fill="black"/>
<path id="Path_2" d="M67.2787 1.18079H53.1147C51.1591 1.18079 49.5738 2.76614 49.5738 4.72177V7.08243C49.5738 7.7343 50.1022 8.26275 50.7541 8.26275C51.406 8.26275 51.9344 7.7343 51.9344 7.08243V4.72177C51.9344 4.06989 52.4629 3.54144 53.1147 3.54144H67.2787C67.9306 3.54144 68.459 4.06989 68.459 4.72177V18.8857C68.459 19.5376 67.9306 20.066 67.2787 20.066H53.1147C52.4629 20.066 51.9344 19.5376 51.9344 18.8857V11.8037C51.9344 11.1519 51.406 10.6234 50.7541 10.6234C50.1022 10.6234 49.5738 11.1519 49.5738 11.8037V18.8857C49.5738 20.8413 51.1591 22.4267 53.1147 22.4267H67.2787C69.2343 22.4267 70.8197 20.8413 70.8197 18.8857V4.72177C70.8197 2.76614 69.2343 1.18079 67.2787 1.18079V1.18079Z" fill="black"/>
<path id="Shape_2" fill-rule="evenodd" clip-rule="evenodd" d="M60.1967 53.1152C57.5892 53.1152 55.4754 51.0014 55.4754 48.3939C55.4754 45.7864 57.5892 43.6726 60.1967 43.6726C62.8042 43.6726 64.918 45.7864 64.918 48.3939C64.918 51.0014 62.8042 53.1152 60.1967 53.1152ZM60.1967 50.7546C61.5005 50.7546 62.5574 49.6977 62.5574 48.3939C62.5574 47.0902 61.5005 46.0333 60.1967 46.0333C58.893 46.0333 57.8361 47.0902 57.8361 48.3939C57.8361 49.6977 58.893 50.7546 60.1967 50.7546Z" fill="black"/>
<path id="Path_3" d="M67.2787 37.771H53.1147C51.1591 37.771 49.5738 39.3563 49.5738 41.312V55.4759C49.5738 57.4315 51.1591 59.0169 53.1147 59.0169H67.2787C69.2343 59.0169 70.8197 57.4315 70.8197 55.4759V53.1153C70.8197 52.4634 70.2912 51.9349 69.6393 51.9349C68.9875 51.9349 68.459 52.4634 68.459 53.1153V55.4759C68.459 56.1278 67.9306 56.6562 67.2787 56.6562H53.1147C52.4629 56.6562 51.9344 56.1278 51.9344 55.4759V41.312C51.9344 40.6601 52.4629 40.1317 53.1147 40.1317H67.2787C67.9306 40.1317 68.459 40.6601 68.459 41.312V48.3939C68.459 49.0458 68.9875 49.5743 69.6393 49.5743C70.2912 49.5743 70.8197 49.0458 70.8197 48.3939V41.312C70.8197 39.3563 69.2343 37.771 67.2787 37.771Z" fill="black"/>
<path id="Shape_3" fill-rule="evenodd" clip-rule="evenodd" d="M27.1476 15.3448C26.9266 15.3455 26.7098 15.2841 26.522 15.1677C26.1762 14.9516 25.9664 14.5722 25.9672 14.1644V7.08246C25.9685 6.67336 26.1814 6.29408 26.5301 6.08008C26.8788 5.86608 27.3134 5.84787 27.6787 6.03197L34.7607 9.57295C35.1549 9.7749 35.4028 10.1805 35.4028 10.6234C35.4028 11.0664 35.1549 11.472 34.7607 11.6739L27.6787 15.2149C27.5143 15.2992 27.3323 15.3436 27.1476 15.3448ZM31.5856 10.6234L28.3279 8.99459V12.2523L31.5856 10.6234Z" fill="black"/>
<path id="Shape_4" fill-rule="evenodd" clip-rule="evenodd" d="M40.1312 10.6234C40.1312 16.4903 35.3751 21.2464 29.5082 21.2464C23.6413 21.2464 18.8853 16.4903 18.8853 10.6234C18.8853 4.75655 23.6413 0.000488281 29.5082 0.000488281C35.3751 0.000488281 40.1312 4.75655 40.1312 10.6234ZM37.7705 10.6234C37.7705 6.0603 34.0713 2.36114 29.5082 2.36114C24.9451 2.36114 21.2459 6.0603 21.2459 10.6234C21.2459 15.1866 24.9451 18.8857 29.5082 18.8857C34.0713 18.8857 37.7705 15.1866 37.7705 10.6234Z" fill="black"/>
<path id="Path_4" d="M41.3115 25.9677C41.683 25.9677 42.0328 25.7928 42.2557 25.4956L45.7967 20.7743C46.1878 20.2528 46.0822 19.5129 45.5607 19.1218C45.0391 18.7307 44.2993 18.8364 43.9082 19.3579L40.3672 24.0792C39.9761 24.6007 40.0818 25.3405 40.6033 25.7317C40.8076 25.8849 41.0561 25.9677 41.3115 25.9677Z" fill="black"/>
<path id="Path_5" d="M43.9082 30.2169C44.1311 30.5141 44.4809 30.689 44.8525 30.689C45.1078 30.689 45.3563 30.6062 45.5607 30.4529L50.282 26.912C50.8035 26.5208 50.9092 25.781 50.518 25.2595C50.1269 24.738 49.3871 24.6323 48.8656 25.0234L44.1443 28.5644C43.6228 28.9555 43.5171 29.6954 43.9082 30.2169Z" fill="black"/>
<path id="Path_6" d="M55.4754 32.8136C55.4187 32.4974 55.2356 32.218 54.9683 32.0398C54.7011 31.8616 54.3727 31.8001 54.059 31.8693L48.1574 33.0497C47.5055 33.1149 47.0299 33.6962 47.0951 34.348C47.1603 34.9999 47.7416 35.4755 48.3934 35.4103H48.6295L54.5312 34.23C54.8473 34.1733 55.1268 33.9902 55.305 33.7229C55.4832 33.4556 55.5447 33.1273 55.4754 32.8136Z" fill="black"/>
<path id="Shape_5" fill-rule="evenodd" clip-rule="evenodd" d="M15.3443 33.0497H1.18033C0.528451 33.0497 0 32.5212 0 31.8693V12.9841C0 12.3322 0.528451 11.8038 1.18033 11.8038H15.3443C15.9961 11.8038 16.5246 12.3322 16.5246 12.9841V31.8693C16.5246 32.5212 15.9961 33.0497 15.3443 33.0497ZM14.1639 14.1644H2.36066V30.689H14.1639V14.1644Z" fill="black"/>
<path id="Path_7" d="M10.623 16.5251H8.2623C7.61042 16.5251 7.08197 17.0535 7.08197 17.7054C7.08197 18.3573 7.61042 18.8857 8.2623 18.8857H10.623C11.2748 18.8857 11.8033 18.3573 11.8033 17.7054C11.8033 17.0535 11.2748 16.5251 10.623 16.5251Z" fill="black"/>
<path id="Path_8" d="M10.623 21.2464H5.90164C5.24976 21.2464 4.72131 21.7748 4.72131 22.4267C4.72131 23.0786 5.24976 23.6071 5.90164 23.6071H10.623C11.2748 23.6071 11.8033 23.0786 11.8033 22.4267C11.8033 21.7748 11.2748 21.2464 10.623 21.2464Z" fill="black"/>
<path id="Path_9" d="M10.623 25.9677H5.90164C5.24976 25.9677 4.72131 26.4962 4.72131 27.148C4.72131 27.7999 5.24976 28.3284 5.90164 28.3284H10.623C11.2748 28.3284 11.8033 27.7999 11.8033 27.148C11.8033 26.4962 11.2748 25.9677 10.623 25.9677Z" fill="black"/>
<path id="Shape_6" fill-rule="evenodd" clip-rule="evenodd" d="M40.2728 32.6956C40.0619 32.3287 39.6714 32.1022 39.2483 32.1014C38.8251 32.1005 38.4337 32.3255 38.2214 32.6915C38.0091 33.0576 38.0082 33.509 38.219 33.8759L43.4243 42.8818L24.539 49.9638H24.4564H24.362L21.2931 51.7343L19.2512 52.9146C18.7082 53.2285 18.0627 53.3134 17.4571 53.1507C16.8546 52.9879 16.3411 52.5933 16.0289 52.053L13.6682 47.969C13.0917 46.8598 13.4798 45.4934 14.5534 44.853L18.6374 42.4923L21.5882 47.6031C21.7999 47.9698 22.1917 48.195 22.6151 48.1933C23.0376 48.195 23.4288 47.9707 23.6408 47.6052C23.8528 47.2397 23.8532 46.7887 23.642 46.4228L20.5967 41.1585L35.4098 28.9421L35.8938 29.7802C36.2197 30.3473 36.9437 30.5428 37.5108 30.2169C38.078 29.891 38.2735 29.167 37.9475 28.5998L36.7672 26.5579C36.5921 26.2586 36.2943 26.0514 35.9528 25.9913C35.6094 25.9266 35.2549 26.0174 34.9849 26.2392L18.4603 39.8602L13.4321 42.7638C11.5764 43.8447 10.6839 46.0419 11.2603 48.1107L10.08 48.7835C8.83625 49.4977 8.14617 50.8916 8.33234 52.3138C8.51851 53.7359 9.54415 54.9052 10.9298 55.2753C11.2302 55.3548 11.5398 55.3945 11.8505 55.3933C12.4714 55.3907 13.0812 55.2281 13.621 54.9212L14.8013 54.2484C15.3683 54.8341 16.0814 55.2579 16.8669 55.4759C17.2702 55.5887 17.6874 55.6444 18.1062 55.6412C18.9359 55.6431 19.7509 55.423 20.4669 55.0038L21.4938 54.4136L23.8544 58.5094C24.8312 60.1981 26.9899 60.7787 28.682 59.8077C29.4963 59.3385 30.0907 58.5649 30.3342 57.6572C30.5777 56.7494 30.4504 55.7822 29.9803 54.9684L27.8321 51.2267L45.5371 44.5815C45.862 44.4593 46.1168 44.2003 46.2334 43.8733C46.3497 43.5503 46.3195 43.1926 46.1508 42.8936L40.2728 32.6956ZM12.3934 52.8674C12.122 53.0243 11.7992 53.0668 11.4964 52.9854C11.194 52.9069 10.9351 52.7116 10.7764 52.4425C10.6195 52.171 10.577 51.8482 10.6584 51.5454C10.7398 51.241 10.9395 50.9817 11.2131 50.8254L12.24 50.2353L13.4203 52.2772L12.3934 52.8674ZM28.0446 57.0694C28.126 56.7665 28.0835 56.4438 27.9266 56.1723L25.5777 52.1356H25.4833L23.5239 53.2569L25.8846 57.3526C26.2127 57.9103 26.9287 58.0999 27.4898 57.7775C27.761 57.624 27.9604 57.3694 28.0446 57.0694Z" fill="black"/>
</g>
</svg>
