<svg width="21" height="20" viewBox="0 0 21 20" fill="none" xmlns="http://www.w3.org/2000/svg">
<path id="Path" d="M19.0185 0H1.11134C0.497375 0 0 0.494167 0 1.10417V18.8967C0 19.5058 0.497375 20 1.11134 20H10.7527V12.255H8.12911V9.23667H10.7527V7.01083C10.7527 4.4275 12.3404 3.02083 14.6604 3.02083C15.7718 3.02083 16.7262 3.10333 17.0047 3.14V5.84L15.396 5.84083C14.1345 5.84083 13.8904 6.43667 13.8904 7.31V9.2375H16.899L16.5073 12.2558H13.8904V20H19.0202C19.6325 20 20.1299 19.5058 20.1299 18.8958V1.10417C20.1299 0.494167 19.6325 0 19.0185 0Z" fill="url(#paint0_linear_0_4006)"/>
<defs>
<linearGradient id="paint0_linear_0_4006" x1="10.0649" y1="-10" x2="-9.93465" y2="10.1294" gradientUnits="userSpaceOnUse">
<stop stop-color="#63AFDB"/>
<stop offset="1" stop-color="#6028F1"/>
</linearGradient>
</defs>
</svg>
