<svg width="72" height="36" viewBox="0 0 72 36" fill="none" xmlns="http://www.w3.org/2000/svg">
<g id="002-forever">
<path id="Path" d="M71.0868 19.1058C70.5087 19.0268 69.9765 19.4315 69.8977 20.0093C69.388 23.7415 67.5411 27.1747 64.6968 29.6763C61.8269 32.2004 58.1393 33.5905 54.3128 33.5905C52.2308 33.5905 50.2086 33.1905 48.3023 32.4016C48.2707 32.3885 48.2341 32.3757 48.2012 32.3658C48.1788 32.359 45.9293 31.6563 42.5797 28.9974C42.1228 28.6347 41.4586 28.7112 41.096 29.1679C40.7334 29.6248 40.8098 30.289 41.2665 30.6517C44.7029 33.3792 47.1171 34.2351 47.538 34.3711C49.6889 35.2545 51.9678 35.7025 54.3128 35.7025C58.6529 35.7025 62.836 34.1255 66.0916 31.2623C69.3172 28.4254 71.4119 24.5306 71.9903 20.2952C72.069 19.7171 71.6646 19.1847 71.0868 19.1058Z" fill="black"/>
<path id="Shape" fill-rule="evenodd" clip-rule="evenodd" d="M54.3835 29.2098C50.6997 29.21 47.9122 27.1675 45.6709 25.1695C43.2558 23.0164 41.2518 20.9124 40.1889 19.7543C39.8391 20.1697 38.8537 21.3668 38.0494 22.3438C37.6071 22.8811 37.2196 23.3519 37.0228 23.5893C37.6765 24.3469 38.3421 25.0731 39.007 25.7537C39.4145 26.1709 39.4066 26.8395 38.9894 27.247C38.5722 27.6544 37.9036 27.6465 37.4961 27.2294C36.8836 26.6024 36.2713 25.9385 35.6677 25.2488C29.3517 32.9362 25.4364 34.1986 24.5635 34.3928C22.6583 35.1682 20.6446 35.6038 18.5767 35.6876C18.5696 35.688 18.5626 35.6881 18.5555 35.6883H18.5552L17.8637 35.7022L17.8424 35.7023C13.0518 35.7023 8.55478 33.8299 5.17964 30.43C1.80479 27.0304 -0.034449 22.5192 0.000425975 17.727C0.0351604 12.9724 1.9343 8.50617 5.34783 5.15086C8.76347 1.79372 13.2615 -0.0314552 18.0235 0.0183261C20.242 0.0404042 22.4038 0.465232 24.4491 1.281C24.546 1.31967 24.6434 1.35792 24.7416 1.39462C25.7143 1.75828 30.6581 3.86301 36.2247 10.7926C42.6957 2.81831 46.7079 1.52386 47.5914 1.32698C49.4968 0.551576 51.5104 0.11606 53.5784 0.032248C53.5856 0.0318261 53.5928 0.0316855 53.5999 0.0315448L54.2914 0.017623L54.3128 0.0174823C58.5916 0.0174823 62.7296 1.55522 65.9648 4.34733C69.166 7.11004 71.2876 10.9201 71.9391 15.076C72.0294 15.6522 71.6355 16.1925 71.0594 16.2829C70.4831 16.3727 69.9428 15.9793 69.8525 15.4031C69.2785 11.7408 67.4078 8.38228 64.5848 5.94609C61.7356 3.48712 58.0916 2.13192 54.323 2.12939L53.6535 2.14289C51.803 2.21911 50.0026 2.61454 48.3022 3.31823C48.2162 3.35381 48.1617 3.37294 48.072 3.38447C47.8595 3.43326 44.0058 4.42101 37.5085 12.5659C37.5062 12.5687 37.5039 12.5715 37.5016 12.5744C37.4995 12.577 37.4974 12.5795 37.4953 12.582C37.4953 12.582 30.1532 21.3271 27.1093 24.5212C25.029 26.7042 22.0877 29.2098 17.7723 29.2098C11.514 29.2097 6.42249 24.1181 6.42249 17.8598C6.42249 14.0558 8.31446 10.5232 11.4834 8.4097C11.9689 8.08626 12.6245 8.21733 12.9479 8.70248C13.2715 9.18778 13.1404 9.84337 12.6551 10.167C10.0749 11.8874 8.53454 14.763 8.53454 17.8594C8.53454 22.9531 12.6788 27.0974 17.7725 27.0974C20.514 27.0974 22.922 25.8532 25.5805 23.0637C27.3793 21.1763 29.0353 19.3614 30.582 17.5821C29.6035 16.5098 27.5408 14.321 25.0791 12.1263C21.6162 9.03928 19.4424 8.62162 17.7729 8.62162H17.769C17.4614 8.62162 17.1513 8.63709 16.8469 8.66733C16.2676 8.72442 15.7493 8.30128 15.6916 7.72092C15.634 7.14056 16.0577 6.62348 16.6381 6.56569C17.0114 6.52856 17.3918 6.50972 17.7684 6.50972H17.7722C21.4559 6.50972 24.2432 8.55201 26.4845 10.55C28.8997 12.7031 30.9031 14.8065 31.9663 15.9648C32.5083 15.3213 34.8518 12.4591 34.8518 12.4591C29.3974 5.53533 24.5517 3.57811 24.002 3.37251C23.8898 3.33047 23.7786 3.28687 23.6673 3.24258C21.8649 2.5237 19.9593 2.1495 18.0027 2.12995C17.9498 2.12953 17.8964 2.12925 17.8435 2.12925C13.7088 2.12925 9.80297 3.73336 6.82847 6.65695C3.81797 9.61584 2.14313 13.5526 2.11261 17.742C2.08168 21.9672 3.70336 25.9447 6.67871 28.9418C9.6518 31.9367 13.6125 33.5872 17.8318 33.59L18.5016 33.5765C20.352 33.5004 22.1525 33.105 23.853 32.4013C23.9387 32.3657 23.9934 32.3467 24.0832 32.3351C24.2983 32.2857 28.2292 31.277 34.8477 22.9004C35.0986 22.583 42.0019 14.3926 45.0458 11.1984C47.1261 9.01565 50.0677 6.51 54.3826 6.51H54.3828C60.6412 6.51 65.7326 11.6015 65.7326 17.8598C65.7326 24.116 60.6431 29.2074 54.3871 29.2098H54.3835ZM54.3828 8.62204C51.6413 8.6219 49.2332 9.86587 46.5747 12.6556C44.7763 14.5426 43.1197 16.3577 41.5731 18.1366C42.5512 19.2087 44.614 21.398 47.0762 23.5931C50.5391 26.6803 52.7131 27.0979 54.3826 27.0979H54.3863C59.4782 27.096 63.6207 22.9519 63.6207 17.86C63.6207 12.7661 59.4765 8.62204 54.3828 8.62204Z" fill="black"/>
</g>
</svg>
