<svg width="21" height="20" viewBox="0 0 21 20" fill="none" xmlns="http://www.w3.org/2000/svg">
<path id="Shape" fill-rule="evenodd" clip-rule="evenodd" d="M10.2507 0C7.5172 0 7.17499 0.0116667 6.1014 0.06C2.44615 0.226667 0.414707 2.24167 0.246958 5.87667C0.197472 6.94417 0.18573 7.28417 0.18573 10C0.18573 12.7158 0.197472 13.0567 0.24612 14.1233C0.413869 17.755 2.44195 19.7733 6.10056 19.94C7.17499 19.9883 7.5172 20 10.2507 20C12.9841 20 13.3272 19.9883 14.4008 19.94C18.0527 19.7733 20.0891 17.7583 20.2544 14.1233C20.3039 13.0567 20.3156 12.7158 20.3156 10C20.3156 7.28417 20.3039 6.94417 20.2552 5.8775C20.0908 2.24917 18.0602 0.2275 14.4016 0.0608333C13.3272 0.0116667 12.9841 0 10.2507 0ZM10.2507 1.80249C12.938 1.80249 13.2567 1.81249 14.3186 1.86082C17.0462 1.98416 18.3202 3.26999 18.4444 5.95999C18.493 7.01416 18.5023 7.33082 18.5023 10.0008C18.5023 12.6717 18.4922 12.9875 18.4444 14.0417C18.3194 16.7292 17.0487 18.0175 14.3186 18.1408C13.2567 18.1892 12.9397 18.1992 10.2507 18.1992C7.56335 18.1992 7.24463 18.1892 6.18361 18.1408C3.44931 18.0167 2.18196 16.725 2.05783 14.0408C2.00918 12.9867 1.99912 12.6708 1.99912 9.99999C1.99912 7.32999 2.01002 7.01416 2.05783 5.95916C2.1828 3.26999 3.4535 1.98332 6.18361 1.85999C7.24547 1.81249 7.56335 1.80249 10.2507 1.80249ZM5.0823 9.99999C5.0823 7.16416 7.3964 4.86499 10.2506 4.86499C13.1049 4.86499 15.419 7.16416 15.419 9.99999C15.419 12.8367 13.1049 15.1358 10.2506 15.1358C7.3964 15.1358 5.0823 12.8358 5.0823 9.99999ZM10.2507 13.3334C8.39789 13.3334 6.8957 11.8417 6.8957 10.0001C6.8957 8.15925 8.39789 6.66675 10.2507 6.66675C12.1035 6.66675 13.6057 8.15925 13.6057 10.0001C13.6057 11.8417 12.1035 13.3334 10.2507 13.3334ZM14.415 4.6624C14.415 3.9999 14.956 3.4624 15.6237 3.4624C16.2905 3.4624 16.8306 3.9999 16.8306 4.6624C16.8306 5.3249 16.2905 5.8624 15.6237 5.8624C14.956 5.8624 14.415 5.3249 14.415 4.6624Z" fill="url(#paint0_linear_0_4009)"/>
<defs>
<linearGradient id="paint0_linear_0_4009" x1="10.2507" y1="25" x2="20.2118" y2="4.94842" gradientUnits="userSpaceOnUse">
<stop stop-color="#FFC593"/>
<stop offset="0.519452" stop-color="#BC7198"/>
<stop offset="1" stop-color="#5A77FF"/>
</linearGradient>
</defs>
</svg>
