<svg width="21" height="20" viewBox="0 0 21 20" fill="none" xmlns="http://www.w3.org/2000/svg">
<path id="Path" d="M10.7042 0C5.14586 0 0.639282 4.47667 0.639282 10C0.639282 14.2367 3.29223 17.855 7.03639 19.3117C6.94832 18.5208 6.86864 17.3075 7.07161 16.4442C7.25446 15.6633 8.25173 11.4733 8.25173 11.4733C8.25173 11.4733 7.95062 10.8742 7.95062 9.98833C7.95062 8.59833 8.76168 7.56 9.77153 7.56C10.6296 7.56 11.0447 8.20083 11.0447 8.96833C11.0447 9.82583 10.4954 11.1083 10.211 12.2975C9.97367 13.2925 10.7134 14.105 11.7015 14.105C13.4905 14.105 14.8652 12.2308 14.8652 9.52583C14.8652 7.13167 13.1341 5.4575 10.6614 5.4575C7.79797 5.4575 6.11712 7.59167 6.11712 9.79667C6.11712 10.6558 6.4501 11.5783 6.86612 12.0783C6.94832 12.1775 6.96006 12.265 6.93574 12.3658L6.65644 13.4992C6.61198 13.6825 6.51049 13.7217 6.31926 13.6333C5.06198 13.0517 4.27608 11.2258 4.27608 9.75917C4.27608 6.605 6.58263 3.7075 10.9265 3.7075C14.4182 3.7075 17.1315 6.18 17.1315 9.48333C17.1315 12.93 14.9449 15.7033 11.9087 15.7033C10.8887 15.7033 9.93006 15.1775 9.60211 14.555L8.97473 16.9325C8.74743 17.8017 8.1343 18.8908 7.72332 19.5542C8.66607 19.8433 9.66669 20 10.7042 20C16.2626 20 20.7692 15.5225 20.7692 10C20.7692 4.47667 16.2626 0 10.7042 0Z" fill="url(#paint0_linear_0_4013)"/>
<defs>
<linearGradient id="paint0_linear_0_4013" x1="10.7042" y1="-10" x2="-9.29536" y2="10.1294" gradientUnits="userSpaceOnUse">
<stop stop-color="#F6C683"/>
<stop offset="1" stop-color="#DE3838"/>
</linearGradient>
</defs>
</svg>
