<svg width="21" height="18" viewBox="0 0 21 18" fill="none" xmlns="http://www.w3.org/2000/svg">
<path id="Path" d="M20.2228 2.79746C19.4822 3.12412 18.6862 3.34412 17.8508 3.44329C18.7038 2.93579 19.3589 2.13162 19.6667 1.17329C18.869 1.64329 17.985 1.98496 17.0439 2.16912C16.2916 1.37162 15.2171 0.873291 14.0295 0.873291C11.3631 0.873291 9.4038 3.34496 10.006 5.91079C6.57471 5.73996 3.53175 4.10662 1.49444 1.62412C0.412457 3.46829 0.933317 5.88079 2.77185 7.10246C2.09582 7.08079 1.45837 6.89662 0.902284 6.58912C0.856992 8.48996 2.22834 10.2683 4.21449 10.6641C3.63324 10.8208 2.99663 10.8575 2.34912 10.7341C2.87417 12.3641 4.39901 13.55 6.20734 13.5833C4.47114 14.9358 2.2837 15.54 0.0928955 15.2833C1.92052 16.4475 4.09203 17.1266 6.42374 17.1266C14.0915 17.1266 18.4237 10.6925 18.162 4.92162C18.9688 4.34246 19.6692 3.61996 20.2228 2.79746Z" fill="url(#paint0_linear_0_4014)"/>
<defs>
<linearGradient id="paint0_linear_0_4014" x1="10.1578" y1="-7.25338" x2="-5.73062" y2="12.4246" gradientUnits="userSpaceOnUse">
<stop stop-color="#65FFEB"/>
<stop offset="1" stop-color="#27718A"/>
</linearGradient>
</defs>
</svg>
