<svg width="21" height="20" viewBox="0 0 21 20" fill="none" xmlns="http://www.w3.org/2000/svg">
<path id="Shape" fill-rule="evenodd" clip-rule="evenodd" d="M10.6114 0C5.05302 0 0.546448 4.4775 0.546448 10C0.546448 15.5225 5.05302 20 10.6114 20C16.1697 20 20.6763 15.5225 20.6763 10C20.6763 4.4775 16.1697 0 10.6114 0ZM14.3363 14.0766C12.5732 14.1966 8.64622 14.1966 6.8857 14.0766C4.97672 13.9466 4.75445 13.0183 4.74019 9.99992C4.75445 6.97575 4.97923 6.05325 6.8857 5.92325C8.64622 5.80325 12.5741 5.80325 14.3363 5.92325C16.2461 6.05325 16.4675 6.98159 16.4826 9.99992C16.4675 13.0241 16.2436 13.9466 14.3363 14.0766ZM13.058 9.99667L8.93387 8.04834V11.9517L13.058 9.99667Z" fill="url(#paint0_linear_0_4017)"/>
<defs>
<linearGradient id="paint0_linear_0_4017" x1="10.6114" y1="30" x2="30.611" y2="9.87055" gradientUnits="userSpaceOnUse">
<stop stop-color="#D3205A"/>
<stop offset="1" stop-color="#FF5A5A"/>
</linearGradient>
</defs>
</svg>
